<svg width="200" height="200" viewBox="0 0 200 200" fill="none" xmlns="http://www.w3.org/2000/svg">
<g clip-path="url(#clip0_141_4312)">
<path d="M-4 181.932V174.408C0.56 174.408 4.056 173.192 6.488 170.76C8.92 168.328 10.896 164.984 12.416 160.728C14.088 156.472 15.988 151.532 18.116 145.908L65.084 18H70.556L121.4 147.732C122.616 150.924 123.984 155.028 125.504 160.044C127.024 165.06 127.632 169.316 127.328 172.812C129.912 172.66 132.496 172.508 135.08 172.356C137.664 172.204 140.248 172.052 142.832 171.9V181.932H90.62V174.408C96.396 174.256 100.196 172.964 102.02 170.532C103.844 168.1 104.528 165.212 104.072 161.868C103.616 158.524 102.856 155.484 101.792 152.748L93.812 131.316L34.532 132.684L26.552 157.08C25.488 160.728 24.5 163.616 23.588 165.744C22.828 167.872 21.916 170.228 20.852 172.812C23.892 172.66 26.856 172.508 29.744 172.356C32.784 172.204 35.748 172.052 38.636 171.9V181.932H-4ZM37.952 122.88H90.62L74.432 79.332C72.76 74.62 71.012 69.984 69.188 65.424C67.516 60.712 65.844 56 64.172 51.288H63.716C62.196 55.544 60.6 59.8 58.928 64.056C57.408 68.312 55.812 72.644 54.14 77.052L37.952 122.88Z" fill="white"/>
<path d="M203.931 29.856C198.307 30.008 194.355 31.3 192.075 33.732C189.947 36.164 188.731 39.432 188.427 43.536C188.275 47.64 188.199 52.428 188.199 57.9V154.8C188.199 158.904 188.123 162.476 187.971 165.516C187.971 168.404 187.819 170.836 187.515 172.812C190.251 172.66 192.987 172.508 195.723 172.356C198.459 172.204 201.195 172.052 203.931 171.9V181.932H152.631V174.408C158.407 174.104 162.359 172.812 164.487 170.532C166.615 168.1 167.755 164.832 167.907 160.728C168.211 156.472 168.363 151.684 168.363 146.364V47.868C168.363 44.828 168.439 41.94 168.591 39.204C168.743 36.316 168.895 33.732 169.047 31.452C166.311 31.604 163.575 31.756 160.839 31.908C158.103 32.06 155.367 32.212 152.631 32.364V22.332H203.931V29.856Z" fill="white"/>
</g>
<defs>
<clipPath id="clip0_141_4312">
<rect width="200" height="200.002" fill="white"/>
</clipPath>
</defs>
</svg>
