<svg width="132" height="234" viewBox="0 0 132 234" fill="none" xmlns="http://www.w3.org/2000/svg">
<path d="M46.2449 167.782V166.44C46.3946 152.197 47.8912 140.862 50.7347 132.436C53.5782 124.01 57.6191 117.186 62.8571 111.967C68.0952 106.747 74.3809 101.937 81.7143 97.5373C86.1292 94.8528 90.0952 91.6835 93.6122 88.0296C97.1293 84.3011 99.898 80.0134 101.918 75.1663C104.014 70.3193 105.061 64.9503 105.061 59.0593C105.061 51.7514 103.34 45.413 99.898 40.044C96.4558 34.6749 91.8537 30.5363 86.0918 27.6281C80.3299 24.7199 73.932 23.2658 66.898 23.2658C60.7619 23.2658 54.8503 24.5335 49.1633 27.0688C43.4762 29.6042 38.7245 33.5937 34.9082 39.0373C31.0918 44.4809 28.8844 51.6023 28.2857 60.4015H0C0.59864 47.7247 3.89116 36.8748 9.87755 27.8518C15.9388 18.8289 23.9082 11.9312 33.7857 7.1587C43.7381 2.38623 54.7755 0 66.898 0C80.068 0 91.517 2.60994 101.245 7.82982C111.048 13.0497 118.605 20.2084 123.918 29.3059C129.306 38.4034 132 48.7686 132 60.4015C132 68.6042 130.728 76.0239 128.184 82.6606C125.714 89.2973 122.122 95.2256 117.408 100.446C112.769 105.665 107.156 110.289 100.571 114.315C93.9864 118.417 88.7109 122.742 84.7449 127.291C80.7789 131.765 77.898 137.097 76.102 143.286C74.3061 149.475 73.3333 157.193 73.1837 166.44V167.782H46.2449ZM60.6122 234C55.0748 234 50.3231 232.024 46.3571 228.072C42.3912 224.12 40.4082 219.384 40.4082 213.866C40.4082 208.348 42.3912 203.613 46.3571 199.661C50.3231 195.708 55.0748 193.732 60.6122 193.732C66.1497 193.732 70.9014 195.708 74.8673 199.661C78.8333 203.613 80.8163 208.348 80.8163 213.866C80.8163 217.52 79.881 220.876 78.0102 223.933C76.2143 226.99 73.7823 229.451 70.7143 231.315C67.7211 233.105 64.3537 234 60.6122 234Z" fill="white"/>
</svg>
