<svg width="200" height="200" viewBox="0 0 200 200" fill="none" xmlns="http://www.w3.org/2000/svg">
<path fill-rule="evenodd" clip-rule="evenodd" d="M13 0H66.3295H119.659H186.321L159.656 53.3295H119.659V106.659H66.3295V53.3295H13V0ZM70.3662 129.377C76.3669 123.377 84.5057 120.005 92.992 120.005C101.478 120.005 109.617 123.377 115.618 129.377C121.619 135.378 124.99 143.517 124.99 152.003C124.99 184.001 92.992 200 92.992 200V184.001C84.5057 184.001 76.3669 180.63 70.3662 174.629C64.3655 168.628 60.9943 160.49 60.9943 152.003C60.9943 143.517 64.3655 135.378 70.3662 129.377Z" fill="white"/>
</svg>
