<svg width="200" height="200" viewBox="0 0 200 200" fill="none" xmlns="http://www.w3.org/2000/svg">
<path fill-rule="evenodd" clip-rule="evenodd" d="M75.1498 44.7483C65.4956 46.7281 55.2256 51.0708 55.2256 51.0708C60.3108 44.1155 70.6326 35.5947 70.6326 35.5947C67.7925 30.2361 65.2779 22.3023 65.2779 22.3023C65.2779 22.3023 77.2146 22.9602 86.5579 26.0059C86.5579 26.0059 102.431 17.2686 118.879 17C118.879 17 106.891 23.9511 101.797 30.4235C103.149 31.1375 112.737 34.0187 120.204 38.4384C120.204 38.4384 106.704 38.8214 94.3153 40.5244C94.3153 40.5244 89.9536 46.7031 86.2656 60.7657C86.2635 60.7657 79.9116 53.7396 75.1498 44.7483V44.7483Z" fill="white" fill-opacity="0.5"/>
<path fill-rule="evenodd" clip-rule="evenodd" d="M139.285 56.3905C131.111 47.2597 120.202 38.437 120.202 38.437C130.236 38.5807 145.127 44.5263 145.127 44.5263C148.037 39.0012 150.075 31.3984 150.075 31.3984C150.075 31.3984 155.772 41.0809 158.359 51.7876C158.359 51.7876 170.186 58.899 179.11 70.8007C179.11 70.8007 169.798 68.8501 162.943 68.8834C162.922 70.4197 165.457 83.0521 164.906 91.7374C164.906 91.7374 157.314 79.3486 150.191 69.0291C150.191 69.0291 138.742 69.2373 126.712 72.539C126.714 72.539 133.451 64.7239 139.285 56.3905V56.3905ZM152.384 115.907C158.413 105.7 164.908 91.7395 164.908 91.7395C166.9 101.076 167.078 112.988 167.078 112.988C173.059 111.723 183.646 106.622 183.646 106.622C183.646 106.622 178.93 119.238 168.357 128.912C168.357 128.912 169.427 136.471 169.551 146.445C169.551 146.445 162.074 143.1 155.873 139.359C154.553 140.131 147.059 145.25 134.398 147.881C134.398 147.881 139.759 139.471 144.194 131.256C144.194 131.256 135.367 125.417 128.374 115.847C128.374 115.845 141.969 117.568 152.384 115.907V115.907Z" fill="white" fill-opacity="0.5"/>
<path fill-rule="evenodd" clip-rule="evenodd" d="M109.74 95.0857C118.988 106.59 128.373 115.854 128.373 115.854C113.04 113.566 100.591 109.248 100.591 109.248C94.3639 119.274 87.5684 130.93 87.5684 130.93C87.5684 130.93 83.7685 118.285 83.1259 103.933C83.1259 103.933 75.4244 101.227 61.2301 95.6145C61.2301 95.6145 71.0212 89.5106 82.8709 86.1818C82.1785 84.8099 83.9945 67.7475 86.2666 60.7734C86.2666 60.7734 93.1761 72.0214 98.8024 80.2903C98.8024 80.2903 109.814 76.5389 126.716 72.546C126.714 72.546 117.466 84.3311 109.74 95.0857V95.0857ZM25.5548 138.6C24.6236 136.84 23.7559 135.048 22.9531 133.226C23.1148 127.125 23.6579 119.266 25.2127 113.17C25.2127 113.17 20.7577 110.066 16.1513 106.032C16.0995 105.33 16.0394 104.622 16 103.913C18.6452 102.922 24.2612 100.929 29.166 99.7885C29.7278 98.3541 32.7815 88.4718 38.6835 81.6539C38.6835 81.6539 39.0815 88.3719 40.6861 97.3153C40.6861 97.3153 50.0024 95.196 61.2281 95.6103C61.2281 95.6103 50.8254 103.838 44.2745 112.196C46.6503 121.833 51.4308 131.082 51.4308 131.082C44.287 127.023 36.7307 121.645 36.7307 121.645C34.0771 124.814 28.7431 133.362 25.5548 138.6V138.6ZM84.9833 182.357C83.827 182.148 82.6761 181.91 81.5317 181.643C77.6322 177.444 71.6846 170.588 67.1425 163.383C67.1425 163.383 50.388 162.026 38.5819 156.834C38.5819 156.834 48.346 154.992 59.0679 149.439C58.3755 148.068 54.2875 140.498 51.4287 131.086C51.4287 131.086 61.6696 139.395 69.2571 144.258C69.2571 144.258 78.8989 138.687 87.5664 130.93C87.5664 130.93 85.3689 141.651 84.152 153.897C89.7519 157.108 95.3981 160.237 101.089 163.283C92.3468 164.562 83.7416 164.293 83.7416 164.293C83.4016 171.092 84.3116 178.239 84.9833 182.357V182.357ZM157.874 160.494C157.874 160.494 146.319 163.56 135.042 163.985C135.042 163.985 134.957 156.259 134.397 147.889C134.397 147.889 128.408 156.424 120.59 164.632C111.359 164.499 101.089 163.286 101.089 163.286C104.611 166.885 108.234 170.383 111.954 173.776C105.001 179.711 98.5743 183.677 98.5743 183.677C99.4865 183.689 100.415 183.696 101.334 183.683C123.281 183.323 143.116 174.55 157.874 160.494V160.494Z" fill="white" fill-opacity="0.5"/>
<path d="M30.3971 71.2339C23.1912 77.5126 17.0176 85.2444 17.0176 85.2444C20.5148 64.2161 31.7757 45.7484 47.7757 33.0078C47.7757 33.0078 43.8327 42.301 42.0872 50.9613C42.0872 50.9613 47.7031 50.5928 55.2283 51.0737C55.2283 51.0737 46.1545 57.1213 39.5705 62.967C38.7288 74.3795 38.6853 81.6533 38.6853 81.6533C32.806 75.7014 30.3971 71.2339 30.3971 71.2339Z" fill="white" fill-opacity="0.5"/>
</svg>
