<svg width="181" height="188" viewBox="0 0 181 188" fill="none" xmlns="http://www.w3.org/2000/svg">
<path fill-rule="evenodd" clip-rule="evenodd" d="M84.4715 47H171.554C171.554 47 181 62.7697 181 95.1452C181 127.35 171.554 140.317 171.554 140.317H84.4715H82.2274H9.44236C9.44236 140.317 0 127.35 0 95.1452C0 62.7697 9.44236 47 9.44236 47H82.2274H84.4715ZM102.861 126.716H93.3734V124.018C91.506 125.817 88.3918 127.316 84.6618 127.316C78.2833 127.316 74.7036 124.168 74.7036 118.021C74.7036 111.725 80.4612 108.278 86.8397 108.127C89.7937 108.127 91.9716 108.578 93.3734 108.877C93.3734 104.979 90.8801 103.93 86.0587 103.93C81.5477 103.93 77.8127 104.979 76.4158 105.579V98.2333C78.5938 97.4836 83.5704 96.7339 88.2366 96.7339H89.3281C97.574 96.7339 102.861 99.7321 102.861 108.127V126.716ZM88.3918 113.824C85.5931 113.824 83.5704 115.323 83.5704 117.272C83.5704 119.67 85.5931 121.02 88.2366 121.02C90.4145 121.02 92.4372 120.27 93.6839 119.071V114.274C93.058 114.124 90.2593 113.824 88.3918 113.824ZM27.721 104.08V111.875H30.6799C34.2547 111.875 36.743 111.126 36.743 107.978C36.743 104.979 34.2547 104.08 30.6799 104.08H27.721ZM22.2787 126.716C22.2787 126.716 18.5438 121.469 18.5438 111.575C18.5438 101.381 22.1235 97.0339 22.2787 97.0339L31.6112 96.8841C40.0124 96.7339 46.0805 99.5824 46.0805 107.678C46.0805 115.473 40.1676 119.221 31.6112 119.221H28.0364V126.716H22.2787ZM120.44 96.5842C113.906 96.5842 106.906 101.082 106.906 111.275V112.775C106.906 122.219 113.595 127.316 120.44 127.316H122.462C130.863 127.316 135.219 121.169 135.219 115.173H127.128C127.128 118.021 125.106 119.821 121.841 119.821C118.106 119.821 115.463 118.021 115.463 112.475V111.426C115.463 105.879 118.106 103.78 121.841 103.78C125.106 103.78 127.128 106.029 127.128 108.578H135.219C135.219 102.581 131.484 96.5842 122.462 96.5842H120.44ZM162.756 108.727C163.066 110.076 163.066 113.524 162.756 114.873H147.04V119.671H162.285C161.199 124.768 159.642 126.716 159.642 126.716H136.466C136.466 126.716 140.041 121.769 140.041 111.575C140.041 101.681 136.466 96.8841 136.466 96.8841H159.642C159.642 96.8841 161.199 99.1327 162.285 103.93H147.04V108.727H162.756ZM78.1281 89.8385H68.6355V60.0056H78.1281V69.1505C79.2146 68.8505 82.6392 68.4008 85.2827 68.4008C91.8164 68.4008 98.0397 70.4996 98.0397 79.0446V89.8385H88.552V81.4433C88.552 77.9949 87.3054 76.1961 83.1048 76.1961C80.7717 76.1961 78.749 76.6458 78.1281 76.7955V89.8385ZM153.268 89.8385H143.155V68.5505H133.197V60.0056H163.377V68.5505H153.268V89.8385ZM129.927 89.8385H120.44V87.1398C118.572 88.9391 115.463 90.2878 111.728 90.2878C105.349 90.2878 101.775 87.2895 101.775 81.1434C101.775 74.847 107.372 71.2493 113.906 71.2493C116.865 71.2493 119.038 71.699 120.44 71.9985C120.44 68.1013 117.951 67.0517 113.13 67.0517C108.619 67.0517 104.884 68.1013 103.482 68.7008V61.3547C105.66 60.6055 110.486 59.8563 115.308 59.8563H116.394C124.485 59.8563 129.927 62.8541 129.927 71.2493V89.8385ZM115.463 76.9457C112.664 76.9457 110.641 78.4451 110.641 80.3937C110.641 82.7925 112.664 84.1416 115.308 84.1416C117.486 84.1416 119.508 83.3919 120.75 82.1925V77.3955C120.129 77.2457 117.33 76.9457 115.463 76.9457ZM52.4589 126.716C52.4589 126.716 49.1896 121.469 49.1896 111.575C49.1896 101.381 52.1485 96.8841 52.4589 96.8841H60.8602C60.7 97.1836 58.2116 102.281 58.2116 111.575C58.2116 116.372 58.8375 118.472 59.1479 119.371H71.5944V126.716H52.4589ZM37.0535 89.8385H25.8535L17.7678 60.0056H27.1002L32.232 81.1434L37.8345 60.0056H44.8338L50.4363 81.1434L55.5681 60.0056H64.9055L56.97 89.8385H45.4546L41.2591 74.9972L37.0535 89.8385Z" fill="white"/>
</svg>
